<svg width="55" height="59" viewBox="0 0 55 59" fill="none" xmlns="http://www.w3.org/2000/svg">
<path d="M55 31.5C55 46.6878 42.6878 59 27.5 59C12.3122 59 0 46.6878 0 31.5C0 16.3122 27.5 0.5 27.5 0.5C27.5 0.5 55 16.3122 55 31.5Z" fill="url(#paint0_linear_288_7530)"/>
<path d="M23.7651 43.2047C23.4349 43.9786 23.7943 44.8742 24.5745 45.1893C25.4772 45.5539 26.3953 45.909 27.3429 46.2747C29.0443 46.9311 31.6669 47.6331 33.0355 47.0833C34.4041 46.5334 35.0086 45.6549 35.6547 44.2253C36.1195 43.1967 36.7812 41.4818 37.3315 40.0955C37.6419 39.3134 37.2784 38.4167 36.5045 38.0864V38.0864C35.7306 37.7562 34.8464 38.1267 34.3786 38.8261C34.0658 39.2938 33.7049 39.7291 33.3009 40.1245C32.5328 40.8764 31.6242 41.4696 30.6269 41.8703C29.6296 42.2709 28.5631 42.4713 27.4884 42.4598C26.9231 42.4538 26.3613 42.3892 25.8119 42.2679C24.9902 42.0866 24.0954 42.4308 23.7651 43.2047V43.2047Z" fill="black"/>
<ellipse cx="32.563" cy="44.695" rx="2.81074" ry="1.18226" transform="rotate(-25.729 32.563 44.695)" fill="#FF91E5"/>
<path d="M17 18.4661C18.2416 18.4661 19.426 19.4266 20.3145 21.1145C21.1968 22.791 21.75 25.1249 21.75 27.7161C21.75 30.3072 21.1968 32.6411 20.3145 34.3176C19.426 36.0055 18.2416 36.9661 17 36.9661C15.7584 36.9661 14.574 36.0055 13.6855 34.3176C12.8032 32.6411 12.25 30.3072 12.25 27.7161C12.25 25.1249 12.8032 22.791 13.6855 21.1145C14.574 19.4266 15.7584 18.4661 17 18.4661Z" fill="white" stroke="#380099" stroke-width="0.5"/>
<path d="M16.0039 28.0634C16.1111 25.9934 16.5061 24.0193 17.1056 22.557C17.7051 21.0947 18.4623 20.2583 19.2178 20.2241C19.9733 20.1899 20.668 20.9604 21.1557 22.3735C21.6433 23.7865 21.8858 25.7317 21.832 27.7993C21.7783 29.8669 21.4324 31.8954 20.8674 33.4576C20.3024 35.0198 19.5622 35.9937 18.8029 36.174C18.0437 36.3544 17.3245 35.7273 16.7969 34.4247C16.2693 33.1221 15.9745 31.2457 15.9746 29.1909L18.907 28.2137L16.0039 28.0634Z" fill="black"/>
<path d="M17 18.4661C18.2416 18.4661 19.426 19.4266 20.3145 21.1145C21.1968 22.791 21.75 25.1249 21.75 27.7161C21.75 30.3072 21.1968 32.6411 20.3145 34.3176C19.426 36.0055 18.2416 36.9661 17 36.9661C15.7584 36.9661 14.574 36.0055 13.6855 34.3176C12.8032 32.6411 12.25 30.3072 12.25 27.7161C12.25 25.1249 12.8032 22.791 13.6855 21.1145C14.574 19.4266 15.7584 18.4661 17 18.4661Z" stroke="#380099" stroke-width="0.5"/>
<path d="M21.2373 20.8988C21.7064 20.6199 21.8659 20.0073 21.5191 19.5858C21.08 19.0523 20.5574 18.5905 19.9695 18.2195C19.1021 17.672 18.1175 17.3375 17.096 17.2435C16.0746 17.1494 15.0454 17.2984 14.0926 17.6783C13.4469 17.9358 12.8487 18.2943 12.3196 18.7387C11.9016 19.0898 11.9465 19.7211 12.3568 20.0811V20.0811C12.7671 20.4411 13.3868 20.3893 13.8272 20.0668C14.134 19.8421 14.469 19.6562 14.8247 19.5144C15.4877 19.25 16.2039 19.1463 16.9148 19.2117C17.6256 19.2772 18.3108 19.5099 18.9145 19.891C19.2383 20.0954 19.5337 20.3393 19.7943 20.6163C20.1683 21.0138 20.7682 21.1778 21.2373 20.8988V20.8988Z" fill="#380099"/>
<path d="M33 18.4661C34.2416 18.4661 35.426 19.4266 36.3145 21.1145C37.1968 22.791 37.75 25.1249 37.75 27.7161C37.75 30.3072 37.1968 32.6411 36.3145 34.3176C35.426 36.0055 34.2416 36.9661 33 36.9661C31.7584 36.9661 30.574 36.0055 29.6855 34.3176C28.8032 32.6411 28.25 30.3072 28.25 27.7161C28.25 25.1249 28.8032 22.791 29.6855 21.1145C30.574 19.4266 31.7584 18.4661 33 18.4661Z" fill="white" stroke="#380099" stroke-width="0.5"/>
<path d="M32.0039 28.0634C32.1111 25.9934 32.5061 24.0193 33.1056 22.557C33.7051 21.0947 34.4623 20.2583 35.2178 20.2241C35.9733 20.1899 36.668 20.9604 37.1557 22.3735C37.6433 23.7865 37.8858 25.7317 37.832 27.7993C37.7783 29.8669 37.4324 31.8954 36.8674 33.4576C36.3024 35.0198 35.5622 35.9937 34.8029 36.174C34.0437 36.3544 33.3245 35.7273 32.7969 34.4247C32.2693 33.1221 31.9745 31.2457 31.9746 29.1909L34.907 28.2137L32.0039 28.0634Z" fill="black"/>
<path d="M33 18.4661C34.2416 18.4661 35.426 19.4266 36.3145 21.1145C37.1968 22.791 37.75 25.1249 37.75 27.7161C37.75 30.3072 37.1968 32.6411 36.3145 34.3176C35.426 36.0055 34.2416 36.9661 33 36.9661C31.7584 36.9661 30.574 36.0055 29.6855 34.3176C28.8032 32.6411 28.25 30.3072 28.25 27.7161C28.25 25.1249 28.8032 22.791 29.6855 21.1145C30.574 19.4266 31.7584 18.4661 33 18.4661Z" stroke="#380099" stroke-width="0.5"/>
<path d="M37.9422 21.9649C38.4597 21.7914 38.7452 21.2265 38.4954 20.7412C38.1791 20.1269 37.766 19.565 37.27 19.0779C36.538 18.3593 35.6464 17.8241 34.668 17.5161C33.6896 17.208 32.6521 17.1359 31.6405 17.3057C30.955 17.4207 30.2944 17.6446 29.6833 17.967C29.2005 18.2216 29.1109 18.8482 29.4357 19.2868V19.2868C29.7606 19.7255 30.3772 19.806 30.8758 19.5839C31.2232 19.4292 31.59 19.3184 31.9676 19.255C32.6716 19.1369 33.3935 19.1871 34.0744 19.4014C34.7553 19.6158 35.3758 19.9883 35.8852 20.4884C36.1584 20.7566 36.3955 21.0576 36.5916 21.3834C36.8731 21.851 37.4246 22.1383 37.9422 21.9649V21.9649Z" fill="#380099"/>
<defs>
<linearGradient id="paint0_linear_288_7530" x1="27.5" y1="4" x2="40" y2="59" gradientUnits="userSpaceOnUse">
<stop stop-color="#B977FF"/>
<stop offset="0.650839" stop-color="#7B00FF"/>
</linearGradient>
</defs>
</svg>
