<svg width="181" height="87" viewBox="0 0 181 87" fill="none" xmlns="http://www.w3.org/2000/svg">
<path d="M42.08 15.5018V53.0218C42.08 53.0218 42.08 57.5018 45.04 62.1418H29.2C32 58.9418 32.24 54.3818 32.24 53.2618V36.7818H14V53.0218C14 53.0218 14 57.5018 16.96 62.1418H1.2C4.08 58.7818 4.16 53.7418 4.16 53.1018V15.4218C4.16 14.7818 4.08 9.74178 1.2 6.38177H16.96C14 11.0218 14 15.5018 14 15.5018V31.4218H32.24V15.2618C32.24 14.1418 32 9.50177 29.2 6.38177H45.04C42.08 11.0218 42.08 15.5018 42.08 15.5018ZM54.6463 17.9018C49.6863 15.1018 47.2863 9.90177 47.2863 9.90177L54.8063 2.62177C57.5263 7.74177 61.9263 9.98177 61.9263 9.98177L54.6463 17.9018ZM62.8863 62.3818H47.4463C50.3263 58.9418 50.4863 54.3018 50.4863 53.1818V34.1418C50.4863 34.1418 50.4863 29.5018 47.4463 27.0218L59.7663 21.4218L59.8463 52.9418C59.8463 53.3418 59.9263 57.6618 62.8863 62.3818Z" fill="black"/>
<path d="M121.346 15.5818V53.0218C121.346 53.0218 121.346 57.5018 124.306 62.1418H108.546C110.546 59.2618 111.586 56.2218 111.586 53.0218V24.3018L96.8663 62.5418C92.3063 62.7818 89.1063 60.2218 87.4262 56.7018L74.7863 25.8218V50.9418C74.7863 55.9018 75.5863 58.6218 77.9063 62.1418H65.2663C67.5863 58.4618 67.9063 56.3018 68.1463 50.9418V17.6618C68.1463 12.4618 67.3463 9.90177 65.2663 6.46178H76.2263L96.7063 48.2218L111.586 6.46178H124.306C121.346 11.1018 121.346 15.5818 121.346 15.5818Z" fill="#7B00FF"/>
<path d="M22.44 70.0724V84.4024H20.5V77.8824H12.77V84.4024H10.83V70.0724H12.77V76.4624H20.5V70.0724H22.44ZM28.0434 84.4024H26.1034V70.0724H28.0434V84.4024ZM44.1289 77.2424C44.1289 78.3157 43.9589 79.2924 43.6189 80.1724C43.2789 81.0524 42.7989 81.8057 42.1789 82.4324C41.5589 83.059 40.8122 83.5457 39.9389 83.8924C39.0722 84.2324 38.1122 84.4024 37.0589 84.4024H31.7089V70.0724H37.0589C38.1122 70.0724 39.0722 70.2457 39.9389 70.5924C40.8122 70.9324 41.5589 71.419 42.1789 72.0524C42.7989 72.679 43.2789 73.4324 43.6189 74.3124C43.9589 75.1924 44.1289 76.169 44.1289 77.2424ZM42.1389 77.2424C42.1389 76.3624 42.0189 75.5757 41.7789 74.8824C41.5389 74.189 41.1989 73.6024 40.7589 73.1224C40.3189 72.6424 39.7856 72.2757 39.1589 72.0224C38.5322 71.769 37.8322 71.6424 37.0589 71.6424H33.6489V82.8324H37.0589C37.8322 82.8324 38.5322 82.7057 39.1589 82.4524C39.7856 82.199 40.3189 81.8357 40.7589 81.3624C41.1989 80.8824 41.5389 80.2957 41.7789 79.6024C42.0189 78.909 42.1389 78.1224 42.1389 77.2424ZM59.3438 77.2424C59.3438 78.3157 59.1738 79.2924 58.8338 80.1724C58.4938 81.0524 58.0138 81.8057 57.3938 82.4324C56.7738 83.059 56.0271 83.5457 55.1538 83.8924C54.2871 84.2324 53.3271 84.4024 52.2738 84.4024H46.9238V70.0724H52.2738C53.3271 70.0724 54.2871 70.2457 55.1538 70.5924C56.0271 70.9324 56.7738 71.419 57.3938 72.0524C58.0138 72.679 58.4938 73.4324 58.8338 74.3124C59.1738 75.1924 59.3438 76.169 59.3438 77.2424ZM57.3538 77.2424C57.3538 76.3624 57.2338 75.5757 56.9938 74.8824C56.7538 74.189 56.4138 73.6024 55.9738 73.1224C55.5338 72.6424 55.0004 72.2757 54.3738 72.0224C53.7471 71.769 53.0471 71.6424 52.2738 71.6424H48.8638V82.8324H52.2738C53.0471 82.8324 53.7471 82.7057 54.3738 82.4524C55.0004 82.199 55.5338 81.8357 55.9738 81.3624C56.4138 80.8824 56.7538 80.2957 56.9938 79.6024C57.2338 78.909 57.3538 78.1224 57.3538 77.2424ZM70.9786 82.8224L70.9686 84.4024H62.1386V70.0724H70.9686V71.6524H64.0786V76.4124H69.6586V77.9324H64.0786V82.8224H70.9786ZM85.2916 70.0724V84.4024H84.3216C84.1682 84.4024 84.0382 84.3757 83.9316 84.3224C83.8316 84.269 83.7316 84.179 83.6316 84.0524L75.3416 73.2524C75.3549 73.419 75.3649 73.5824 75.3716 73.7424C75.3782 73.9024 75.3816 74.0524 75.3816 74.1924V84.4024H73.6816V70.0724H74.6816C74.7682 70.0724 74.8416 70.079 74.9016 70.0924C74.9616 70.099 75.0149 70.1157 75.0616 70.1424C75.1082 70.1624 75.1549 70.1957 75.2016 70.2424C75.2482 70.2824 75.2982 70.3357 75.3516 70.4024L83.6416 81.1924C83.6282 81.019 83.6149 80.8524 83.6016 80.6924C83.5949 80.5257 83.5916 80.369 83.5916 80.2224V70.0724H85.2916ZM108.982 70.0724V84.4024H107.282V73.8724C107.282 73.7324 107.286 73.5824 107.292 73.4224C107.306 73.2624 107.319 73.099 107.332 72.9324L102.412 81.8924C102.259 82.1924 102.026 82.3424 101.712 82.3424H101.432C101.119 82.3424 100.886 82.1924 100.732 81.8924L95.7122 72.8924C95.7522 73.2457 95.7722 73.5724 95.7722 73.8724V84.4024H94.0722V70.0724H95.5022C95.6755 70.0724 95.8089 70.089 95.9022 70.1224C95.9955 70.1557 96.0855 70.249 96.1722 70.4024L101.122 79.2224C101.202 79.3824 101.279 79.549 101.352 79.7224C101.432 79.8957 101.506 80.0724 101.572 80.2524C101.639 80.0724 101.709 79.8957 101.782 79.7224C101.856 79.5424 101.936 79.3724 102.022 79.2124L106.882 70.4024C106.962 70.249 107.049 70.1557 107.142 70.1224C107.242 70.089 107.379 70.0724 107.552 70.0724H108.982ZM125.886 77.2424C125.886 78.3157 125.716 79.3024 125.376 80.2024C125.036 81.0957 124.556 81.8657 123.936 82.5124C123.316 83.159 122.57 83.6624 121.696 84.0224C120.83 84.3757 119.87 84.5524 118.816 84.5524C117.763 84.5524 116.803 84.3757 115.936 84.0224C115.07 83.6624 114.326 83.159 113.706 82.5124C113.086 81.8657 112.606 81.0957 112.266 80.2024C111.926 79.3024 111.756 78.3157 111.756 77.2424C111.756 76.169 111.926 75.1857 112.266 74.2924C112.606 73.3924 113.086 72.619 113.706 71.9724C114.326 71.319 115.07 70.8124 115.936 70.4524C116.803 70.0924 117.763 69.9124 118.816 69.9124C119.87 69.9124 120.83 70.0924 121.696 70.4524C122.57 70.8124 123.316 71.319 123.936 71.9724C124.556 72.619 125.036 73.3924 125.376 74.2924C125.716 75.1857 125.886 76.169 125.886 77.2424ZM123.896 77.2424C123.896 76.3624 123.776 75.5724 123.536 74.8724C123.296 74.1724 122.956 73.5824 122.516 73.1024C122.076 72.6157 121.543 72.2424 120.916 71.9824C120.29 71.7224 119.59 71.5924 118.816 71.5924C118.05 71.5924 117.353 71.7224 116.726 71.9824C116.1 72.2424 115.563 72.6157 115.116 73.1024C114.676 73.5824 114.336 74.1724 114.096 74.8724C113.856 75.5724 113.736 76.3624 113.736 77.2424C113.736 78.1224 113.856 78.9124 114.096 79.6124C114.336 80.3057 114.676 80.8957 115.116 81.3824C115.563 81.8624 116.1 82.2324 116.726 82.4924C117.353 82.7457 118.05 82.8724 118.816 82.8724C119.59 82.8724 120.29 82.7457 120.916 82.4924C121.543 82.2324 122.076 81.8624 122.516 81.3824C122.956 80.8957 123.296 80.3057 123.536 79.6124C123.776 78.9124 123.896 78.1224 123.896 77.2424ZM141.902 77.2424C141.902 78.3157 141.732 79.3024 141.392 80.2024C141.052 81.0957 140.572 81.8657 139.952 82.5124C139.332 83.159 138.585 83.6624 137.712 84.0224C136.845 84.3757 135.885 84.5524 134.832 84.5524C133.779 84.5524 132.819 84.3757 131.952 84.0224C131.085 83.6624 130.342 83.159 129.722 82.5124C129.102 81.8657 128.622 81.0957 128.282 80.2024C127.942 79.3024 127.772 78.3157 127.772 77.2424C127.772 76.169 127.942 75.1857 128.282 74.2924C128.622 73.3924 129.102 72.619 129.722 71.9724C130.342 71.319 131.085 70.8124 131.952 70.4524C132.819 70.0924 133.779 69.9124 134.832 69.9124C135.885 69.9124 136.845 70.0924 137.712 70.4524C138.585 70.8124 139.332 71.319 139.952 71.9724C140.572 72.619 141.052 73.3924 141.392 74.2924C141.732 75.1857 141.902 76.169 141.902 77.2424ZM139.912 77.2424C139.912 76.3624 139.792 75.5724 139.552 74.8724C139.312 74.1724 138.972 73.5824 138.532 73.1024C138.092 72.6157 137.559 72.2424 136.932 71.9824C136.305 71.7224 135.605 71.5924 134.832 71.5924C134.065 71.5924 133.369 71.7224 132.742 71.9824C132.115 72.2424 131.579 72.6157 131.132 73.1024C130.692 73.5824 130.352 74.1724 130.112 74.8724C129.872 75.5724 129.752 76.3624 129.752 77.2424C129.752 78.1224 129.872 78.9124 130.112 79.6124C130.352 80.3057 130.692 80.8957 131.132 81.3824C131.579 81.8624 132.115 82.2324 132.742 82.4924C133.369 82.7457 134.065 82.8724 134.832 82.8724C135.605 82.8724 136.305 82.7457 136.932 82.4924C137.559 82.2324 138.092 81.8624 138.532 81.3824C138.972 80.8957 139.312 80.3057 139.552 79.6124C139.792 78.9124 139.912 78.1224 139.912 77.2424ZM157.098 77.2424C157.098 78.3157 156.928 79.2924 156.588 80.1724C156.248 81.0524 155.768 81.8057 155.148 82.4324C154.528 83.059 153.781 83.5457 152.908 83.8924C152.041 84.2324 151.081 84.4024 150.028 84.4024H144.678V70.0724H150.028C151.081 70.0724 152.041 70.2457 152.908 70.5924C153.781 70.9324 154.528 71.419 155.148 72.0524C155.768 72.679 156.248 73.4324 156.588 74.3124C156.928 75.1924 157.098 76.169 157.098 77.2424ZM155.108 77.2424C155.108 76.3624 154.988 75.5757 154.748 74.8824C154.508 74.189 154.168 73.6024 153.728 73.1224C153.288 72.6424 152.754 72.2757 152.128 72.0224C151.501 71.769 150.801 71.6424 150.028 71.6424H146.618V82.8324H150.028C150.801 82.8324 151.501 82.7057 152.128 82.4524C152.754 82.199 153.288 81.8357 153.728 81.3624C154.168 80.8824 154.508 80.2957 154.748 79.6024C154.988 78.909 155.108 78.1224 155.108 77.2424Z" fill="black"/>
<path d="M181 34.5C181 49.6878 168.688 62 153.5 62C138.312 62 126 49.6878 126 34.5C126 19.3122 153.5 3.5 153.5 3.5C153.5 3.5 181 19.3122 181 34.5Z" fill="url(#paint0_linear_288_7872)"/>
<path d="M149.765 46.2047C149.435 46.9786 149.794 47.8742 150.575 48.1893C151.477 48.5539 152.395 48.909 153.343 49.2747C155.044 49.9311 157.667 50.6331 159.036 50.0833C160.404 49.5334 161.009 48.6549 161.655 47.2253C162.12 46.1967 162.781 44.4818 163.331 43.0955C163.642 42.3134 163.278 41.4167 162.505 41.0864V41.0864C161.731 40.7562 160.846 41.1267 160.379 41.8261C160.066 42.2938 159.705 42.7291 159.301 43.1245C158.533 43.8764 157.624 44.4696 156.627 44.8703C155.63 45.2709 154.563 45.4713 153.488 45.4598C152.923 45.4538 152.361 45.3892 151.812 45.2679C150.99 45.0866 150.095 45.4308 149.765 46.2047V46.2047Z" fill="black"/>
<ellipse cx="158.563" cy="47.695" rx="2.81074" ry="1.18226" transform="rotate(-25.729 158.563 47.695)" fill="#FF91E5"/>
<path d="M143 21.4661C144.242 21.4661 145.426 22.4266 146.314 24.1145C147.197 25.791 147.75 28.1249 147.75 30.7161C147.75 33.3072 147.197 35.6411 146.314 37.3176C145.426 39.0055 144.242 39.9661 143 39.9661C141.758 39.9661 140.574 39.0055 139.686 37.3176C138.803 35.6411 138.25 33.3072 138.25 30.7161C138.25 28.1249 138.803 25.791 139.686 24.1145C140.574 22.4266 141.758 21.4661 143 21.4661Z" fill="white" stroke="#380099" stroke-width="0.5"/>
<path d="M142.004 31.0634C142.111 28.9934 142.506 27.0193 143.106 25.557C143.705 24.0947 144.462 23.2583 145.218 23.2241C145.973 23.1899 146.668 23.9604 147.156 25.3735C147.643 26.7865 147.886 28.7317 147.832 30.7993C147.778 32.8669 147.432 34.8954 146.867 36.4576C146.302 38.0198 145.562 38.9937 144.803 39.174C144.044 39.3544 143.324 38.7273 142.797 37.4247C142.269 36.1221 141.974 34.2457 141.975 32.1909L144.907 31.2137L142.004 31.0634Z" fill="black"/>
<path d="M143 21.4661C144.242 21.4661 145.426 22.4266 146.314 24.1145C147.197 25.791 147.75 28.1249 147.75 30.7161C147.75 33.3072 147.197 35.6411 146.314 37.3176C145.426 39.0055 144.242 39.9661 143 39.9661C141.758 39.9661 140.574 39.0055 139.686 37.3176C138.803 35.6411 138.25 33.3072 138.25 30.7161C138.25 28.1249 138.803 25.791 139.686 24.1145C140.574 22.4266 141.758 21.4661 143 21.4661Z" stroke="#380099" stroke-width="0.5"/>
<path d="M147.237 23.8988C147.706 23.6199 147.866 23.0073 147.519 22.5858C147.08 22.0523 146.557 21.5905 145.97 21.2195C145.102 20.672 144.117 20.3375 143.096 20.2435C142.075 20.1494 141.045 20.2984 140.093 20.6783C139.447 20.9358 138.849 21.2943 138.32 21.7387C137.902 22.0898 137.947 22.7211 138.357 23.0811V23.0811C138.767 23.4411 139.387 23.3893 139.827 23.0668C140.134 22.8421 140.469 22.6562 140.825 22.5144C141.488 22.25 142.204 22.1463 142.915 22.2117C143.626 22.2772 144.311 22.5099 144.914 22.891C145.238 23.0954 145.534 23.3393 145.794 23.6163C146.168 24.0138 146.768 24.1778 147.237 23.8988V23.8988Z" fill="#380099"/>
<path d="M159 21.4661C160.242 21.4661 161.426 22.4266 162.314 24.1145C163.197 25.791 163.75 28.1249 163.75 30.7161C163.75 33.3072 163.197 35.6411 162.314 37.3176C161.426 39.0055 160.242 39.9661 159 39.9661C157.758 39.9661 156.574 39.0055 155.686 37.3176C154.803 35.6411 154.25 33.3072 154.25 30.7161C154.25 28.1249 154.803 25.791 155.686 24.1145C156.574 22.4266 157.758 21.4661 159 21.4661Z" fill="white" stroke="#380099" stroke-width="0.5"/>
<path d="M158.004 31.0634C158.111 28.9934 158.506 27.0193 159.106 25.557C159.705 24.0947 160.462 23.2583 161.218 23.2241C161.973 23.1899 162.668 23.9604 163.156 25.3735C163.643 26.7865 163.886 28.7317 163.832 30.7993C163.778 32.8669 163.432 34.8954 162.867 36.4576C162.302 38.0198 161.562 38.9937 160.803 39.174C160.044 39.3544 159.324 38.7273 158.797 37.4247C158.269 36.1221 157.974 34.2457 157.975 32.1909L160.907 31.2137L158.004 31.0634Z" fill="black"/>
<path d="M159 21.4661C160.242 21.4661 161.426 22.4266 162.314 24.1145C163.197 25.791 163.75 28.1249 163.75 30.7161C163.75 33.3072 163.197 35.6411 162.314 37.3176C161.426 39.0055 160.242 39.9661 159 39.9661C157.758 39.9661 156.574 39.0055 155.686 37.3176C154.803 35.6411 154.25 33.3072 154.25 30.7161C154.25 28.1249 154.803 25.791 155.686 24.1145C156.574 22.4266 157.758 21.4661 159 21.4661Z" stroke="#380099" stroke-width="0.5"/>
<path d="M163.942 24.9649C164.46 24.7914 164.745 24.2265 164.495 23.7412C164.179 23.1269 163.766 22.565 163.27 22.0779C162.538 21.3593 161.646 20.8241 160.668 20.5161C159.69 20.208 158.652 20.1359 157.641 20.3057C156.955 20.4207 156.294 20.6446 155.683 20.967C155.201 21.2216 155.111 21.8482 155.436 22.2868V22.2868C155.761 22.7255 156.377 22.806 156.876 22.5839C157.223 22.4292 157.59 22.3184 157.968 22.255C158.672 22.1369 159.394 22.1871 160.074 22.4014C160.755 22.6158 161.376 22.9883 161.885 23.4884C162.158 23.7566 162.396 24.0576 162.592 24.3834C162.873 24.851 163.425 25.1383 163.942 24.9649V24.9649Z" fill="#380099"/>
<defs>
<linearGradient id="paint0_linear_288_7872" x1="153.5" y1="7" x2="166" y2="62" gradientUnits="userSpaceOnUse">
<stop stop-color="#B977FF"/>
<stop offset="0.650839" stop-color="#7B00FF"/>
</linearGradient>
</defs>
</svg>
