<svg width="200" height="178" viewBox="0 0 200 178" fill="none" xmlns="http://www.w3.org/2000/svg">
<path d="M124.705 72.8793C97.1849 84.1903 76.9362 103.803 63.9588 131.718C52.5131 102.57 34.5957 81.0316 10.2065 67.1028C36.0311 55.7077 56.2798 36.0949 70.9526 8.26443C80.7083 37.3269 98.6257 58.8652 124.705 72.8793Z" fill="url(#paint0_linear_169_1661)"/>
<path d="M191.438 124.447C170.474 133.327 155.158 148.962 145.492 171.352C136.442 147.755 122.511 130.236 103.697 118.795C123.363 109.834 138.678 94.1985 149.643 71.8903C157.398 95.4041 171.33 112.923 191.438 124.447Z" fill="url(#paint1_linear_169_1661)"/>
<defs>
<linearGradient id="paint0_linear_169_1661" x1="54.0265" y1="11.739" x2="78.0615" y2="128.823" gradientUnits="userSpaceOnUse">
<stop stop-color="#7B00FF"/>
<stop offset="1" stop-color="#380099"/>
</linearGradient>
<linearGradient id="paint1_linear_169_1661" x1="136.715" y1="74.5442" x2="156.139" y2="169.167" gradientUnits="userSpaceOnUse">
<stop stop-color="#7B00FF"/>
<stop offset="1" stop-color="#32008A"/>
</linearGradient>
</defs>
</svg>
