<svg width="195" height="195" viewBox="0 0 195 195" fill="none" xmlns="http://www.w3.org/2000/svg">
<path d="M159.25 170.625L108.063 119.437C104 122.687 99.3281 125.26 94.0469 127.156C88.7656 129.052 83.1458 130 77.1875 130C62.4271 130 49.9349 124.888 39.7109 114.664C29.487 104.44 24.375 91.9479 24.375 77.1875C24.375 62.4271 29.487 49.9349 39.7109 39.7109C49.9349 29.487 62.4271 24.375 77.1875 24.375C91.9479 24.375 104.44 29.487 114.664 39.7109C124.888 49.9349 130 62.4271 130 77.1875C130 83.1458 129.052 88.7656 127.156 94.0469C125.26 99.3281 122.687 104 119.437 108.063L170.625 159.25L159.25 170.625ZM77.1875 113.75C87.3438 113.75 95.9766 110.195 103.086 103.086C110.195 95.9766 113.75 87.3438 113.75 77.1875C113.75 67.0312 110.195 58.3984 103.086 51.2891C95.9766 44.1797 87.3438 40.625 77.1875 40.625C67.0312 40.625 58.3984 44.1797 51.2891 51.2891C44.1797 58.3984 40.625 67.0312 40.625 77.1875C40.625 87.3438 44.1797 95.9766 51.2891 103.086C58.3984 110.195 67.0312 113.75 77.1875 113.75Z" fill="url(#paint0_linear_169_1656)"/>
<defs>
<linearGradient id="paint0_linear_169_1656" x1="97.5" y1="24.375" x2="97.5" y2="170.625" gradientUnits="userSpaceOnUse">
<stop stop-color="#7B00FF"/>
<stop offset="1" stop-color="#32008A"/>
</linearGradient>
</defs>
</svg>
